# xmcd
#
# Track frame offsets: 
#        150
#        23196
#        46647
#        69291
#        91680
#        113857
#        136480
#        155567
#        176978
#        199616
#
# Disc length: 2961 seconds
#
# Revision: 1
# Processed by: cddbd v1.5.2PL0 Copyright (c) Steve Scherf et al.
# Submitted via: ExactAudioCopy v0.99pb4
#
DISCID=7d0b8f0a
DTITLE=Dirk K - Urban Standards
DYEAR=1900
DGENRE=Jazz
TTITLE0=My foolish heart
TTITLE1=Summertime
TTITLE2=My funny valentine
TTITLE3=Naima
TTITLE4=Out of nowhere
TTITLE5=Misty
TTITLE6=Mr PC
TTITLE7=ou don't know what love is
TTITLE8=Take five
TTITLE9=In a sentimental mode
EXTD=
EXTT0=
EXTT1=
EXTT2=
EXTT3=
EXTT4=
EXTT5=
EXTT6=
EXTT7=
EXTT8=
EXTT9=
PLAYORDER=
